A quoi ressemble le monde pour les milliers de gens qui vivent dans le silence ? Le pari de Nicolas Philibert est de nous faire découvrir ce pays lointain des sourds profonds où le regard et le toucher ont tant d'importance. Ce film raconte leur histoire et nous fait voir le monde à travers leurs yeux.

Sous Titres Fr
French subtitles

Le Pays Des Sourds (1993).avi
Format                                   : AVI
Format/Info                              : Audio Video Interleave
File size                                : 689 MiB
Duration                                 : 1h 34mn
Overall bit rate                         : 1 022 Kbps
Writing library                          : VirtualDub build 13870/release

Video
ID                                       : 0
Format                                   : MPEG-4 Visual
Format settings, BVOP                    : No
Format settings, QPel                    : No
Format settings, GMC                     : No warppoints
Format settings, Matrix                  : Default (H.263)
Codec ID                                 : DX50
Codec ID/Hint                            : DivX 5
Duration                                 : 1h 34mn
Bit rate                                 : 949 Kbps
Width                                    : 640 pixels
Height                                   : 368 pixels
Display aspect ratio                     : 1.739
Frame rate                               : 25.000 fps
Color space                              : YUV
Chroma subsampling                       : 4:2:0
Bit depth                                : 8 bits
Scan type                                : Progressive
Compression mode                         : Lossy
Bits/(Pixel*Frame)                       : 0.161
Stream size                              : 640 MiB (93%)
Writing library                          : DivX 5.0.5 (UTC 2003-04-24)

Audio
ID                                       : 1
Format                                   : WMA
Format version                           : Version 2
Codec ID                                 : 161
Codec ID/Info                            : Windows Media Audio
Duration                                 : 1h 34mn
Bit rate                                 : 64.1 Kbps
Channel(s)                               : 2 channels
Sampling rate                            : 44.1 KHz
Bit depth                                : 16 bits
Stream size                              : 43.2 MiB (6%)
Interleave, duration                     : 46 ms (1.16 video frame)
Interleave, preload duration             : 464 ms
